<svg xmlns="http://www.w3.org/2000/svg" viewBox="0 0 500 400">
  <!-- Background -->
  <rect width="500" height="400" fill="#f8f9fa"/>
  
  <!-- Title -->
  <text x="250" y="25" text-anchor="middle" font-family="Arial" font-size="16" font-weight="bold">Gaussian Splatting Rendering Pipeline</text>
  
  <!-- Stage 1: 3D Gaussians -->
  <rect x="20" y="50" width="100" height="60" rx="5" fill="#e3f2fd" stroke="#1976d2" stroke-width="2"/>
  <text x="70" y="75" text-anchor="middle" font-family="Arial" font-size="11" font-weight="bold">3D Gaussians</text>
  <text x="70" y="90" text-anchor="middle" font-family="Arial" font-size="9">(position, scale,</text>
  <text x="70" y="102" text-anchor="middle" font-family="Arial" font-size="9">rotation, opacity, SH)</text>
  
  <!-- Arrow 1 -->
  <path d="M 130 80 L 170 80" stroke="#666" stroke-width="2" fill="none" marker-end="url(#arrowhead)"/>
  
  <!-- Stage 2: Projection -->
  <rect x="180" y="50" width="120" height="60" rx="5" fill="#fff3e0" stroke="#f57c00" stroke-width="2"/>
  <text x="240" y="75" text-anchor="middle" font-family="Arial" font-size="11" font-weight="bold">Project to 2D</text>
  <text x="240" y="90" text-anchor="middle" font-family="Arial" font-size="9">( covariance matrix</text>
  <text x="240" y="102" text-anchor="middle" font-family="Arial" font-size="9">x screen space )</text>
  
  <!-- Arrow 2 -->
  <path d="M 310 80 L 350 80" stroke="#666" stroke-width="2" fill="none" marker-end="url(#arrowhead)"/>
  
  <!-- Stage 3: Rasterization -->
  <rect x="360" y="50" width="120" height="60" rx="5" fill="#e8f5e9" stroke="#388e3c" stroke-width="2"/>
  <text x="420" y="75" text-anchor="middle" font-family="Arial" font-size="11" font-weight="bold">Rasterize</text>
  <text x="420" y="90" text-anchor="middle" font-family="Arial" font-size="9">(alpha blending</text>
  <text x="420" y="102" text-anchor="middle" font-family="Arial" font-size="9">2D Gaussians)</text>
  
  <!-- Vertical line down -->
  <line x1="420" y1="120" x2="420" y2="160" stroke="#ccc" stroke-width="2" stroke-dasharray="4,4"/>
  
  <!-- Rendered Image -->
  <rect x="360" y="170" width="120" height="80" rx="3" fill="#212121"/>
  <text x="420" y="175" text-anchor="middle" font-family="Arial" font-size="9" fill="white">Rendered Image</text>
  <!-- Simple gradient representation -->
  <defs>
    <linearGradient id="grad" x1="0%" y1="0%" x2="100%" y2="100%">
      <stop offset="0%" style="stop-color:#ff6b6b;stop-opacity:1" />
      <stop offset="50%" style="stop-color:#4ecdc4;stop-opacity:1" />
      <stop offset="100%" style="stop-color:#45b7d1;stop-opacity:1" />
    </linearGradient>
  </defs>
  <rect x="370" y="185" width="100" height="55" fill="url(#grad)" opacity="0.8"/>
  
  <!-- Training Flow -->
  <text x="250" y="290" text-anchor="middle" font-family="Arial" font-size="12" font-weight="bold">Training Pipeline</text>
  
  <!-- Loss -->
  <rect x="20" y="310" width="100" height="50" rx="5" fill="#fce4ec" stroke="#c2185b" stroke-width="2"/>
  <text x="70" y="335" text-anchor="middle" font-family="Arial" font-size="10">Loss</text>
  
  <!-- Arrow -->
  <path d="M 130 335 L 170 335" stroke="#666" stroke-width="2" fill="none" marker-end="url(#arrowhead)"/>
  
  <!-- Backprop -->
  <rect x="180" y="310" width="120" height="50" rx="5" fill="#f3e5f5" stroke="#7b1fa2" stroke-width="2"/>
  <text x="240" y="330" text-anchor="middle" font-family="Arial" font-size="10" font-weight="bold">Backprop</text>
  <text x="240" y="345" text-anchor="middle" font-family="Arial" font-size="9">Gradients</text>
  
  <!-- Arrow -->
  <path d="M 310 335 L 350 335" stroke="#666" stroke-width="2" fill="none" marker-end="url(#arrowhead)"/>
  
  <!-- Update -->
  <rect x="360" y="310" width="120" height="50" rx="5" fill="#fff9c4" stroke="#fbc02d" stroke-width="2"/>
  <text x="420" y="330" text-anchor="middle" font-family="Arial" font-size="10" font-weight="bold">Update Gaussians</text>
  <text x="420" y="345" text-anchor="middle" font-family="Arial" font-size="9">(densify, prune)</text>
  
  <!-- Arrow back to 3D -->
  <path d="M 420 370 L 420 395 L 70 395 L 70 115" stroke="#1976d2" stroke-width="2" fill="none" marker-end="url(#arrowhead)"/>
  
  <!-- Arrowhead marker -->
  <defs>
    <marker id="arrowhead" markerWidth="10" markerHeight="7" refX="9" refY="3.5" orient="auto">
      <polygon points="0 0, 10 3.5, 0 7" fill="#666"/>
    </marker>
  </defs>
</svg>
