<svg xmlns="http://www.w3.org/2000/svg" width="800" height="600" viewBox="0 0 800 600">
  <rect width="100%" height="100%" fill="#1a1a2e"/>
  <text x="400" y="30" fill="white" font-size="16" text-anchor="middle">3D Point Cloud</text>
  <line x1="400" y1="300" x2="485" y2="342" stroke="red" stroke-width="2"/>
  <text x="495" y="342" fill="red" font-size="12">X</text>
  <line x1="400" y1="300" x2="400" y2="196" stroke="green" stroke-width="2"/>
  <text x="410" y="196" fill="green" font-size="12">Y</text>
  <line x1="400" y1="300" x2="315" y2="342" stroke="blue" stroke-width="2"/>
  <text x="325" y="342" fill="blue" font-size="12">Z</text>
  <circle cx="369.9" cy="178.4" r="3.0" fill="rgb(234,20,0)" opacity="0.8"/>
  <circle cx="396.6" cy="486.5" r="3.0" fill="rgb(107,147,0)" opacity="0.8"/>
  <circle cx="480.9" cy="508.6" r="3.0" fill="rgb(0,48,206)" opacity="0.8"/>
  <circle cx="352.4" cy="342.2" r="3.0" fill="rgb(93,161,0)" opacity="0.8"/>
  <circle cx="255.5" cy="209.3" r="3.0" fill="rgb(0,172,82)" opacity="0.8"/>
  <circle cx="363.9" cy="313.4" r="3.0" fill="rgb(43,211,0)" opacity="0.8"/>
  <circle cx="498.2" cy="161.8" r="3.0" fill="rgb(0,150,104)" opacity="0.8"/>
  <circle cx="479.3" cy="380.7" r="3.0" fill="rgb(236,18,0)" opacity="0.8"/>
  <circle cx="316.6" cy="387.4" r="3.0" fill="rgb(0,3,251)" opacity="0.8"/>
  <circle cx="273.1" cy="113.5" r="3.0" fill="rgb(0,3,251)" opacity="0.8"/>
  <circle cx="589.4" cy="215.8" r="3.0" fill="rgb(0,0,254)" opacity="0.8"/>
  <circle cx="361.1" cy="202.6" r="3.0" fill="rgb(246,8,0)" opacity="0.8"/>
  <circle cx="349.8" cy="323.9" r="3.0" fill="rgb(77,177,0)" opacity="0.8"/>
  <circle cx="295.1" cy="103.2" r="3.0" fill="rgb(0,152,102)" opacity="0.8"/>
  <circle cx="386.5" cy="389.5" r="3.0" fill="rgb(128,126,0)" opacity="0.8"/>
  <circle cx="338.4" cy="409.5" r="3.0" fill="rgb(0,50,204)" opacity="0.8"/>
  <circle cx="276.2" cy="106.9" r="3.0" fill="rgb(0,3,251)" opacity="0.8"/>
  <circle cx="365.8" cy="182.0" r="3.0" fill="rgb(244,10,0)" opacity="0.8"/>
  <circle cx="267.6" cy="279.8" r="3.0" fill="rgb(0,132,122)" opacity="0.8"/>
  <circle cx="426.3" cy="387.9" r="3.0" fill="rgb(140,114,0)" opacity="0.8"/>
  <circle cx="511.1" cy="254.0" r="3.0" fill="rgb(38,216,0)" opacity="0.8"/>
  <circle cx="396.3" cy="328.5" r="3.0" fill="rgb(17,237,0)" opacity="0.8"/>
  <circle cx="364.5" cy="211.6" r="3.0" fill="rgb(225,29,0)" opacity="0.8"/>
  <circle cx="246.1" cy="414.6" r="3.0" fill="rgb(22,232,0)" opacity="0.8"/>
  <circle cx="307.1" cy="176.3" r="3.0" fill="rgb(253,1,0)" opacity="0.8"/>
  <circle cx="379.6" cy="278.7" r="3.0" fill="rgb(15,239,0)" opacity="0.8"/>
  <circle cx="457.8" cy="340.9" r="3.0" fill="rgb(253,1,0)" opacity="0.8"/>
  <circle cx="340.3" cy="425.6" r="3.0" fill="rgb(0,8,246)" opacity="0.8"/>
  <circle cx="358.9" cy="269.6" r="3.0" fill="rgb(46,208,0)" opacity="0.8"/>
  <circle cx="421.4" cy="410.9" r="3.0" fill="rgb(186,68,0)" opacity="0.8"/>
  <circle cx="375.5" cy="103.8" r="3.0" fill="rgb(0,247,7)" opacity="0.8"/>
  <circle cx="505.2" cy="401.2" r="3.0" fill="rgb(160,94,0)" opacity="0.8"/>
  <circle cx="527.6" cy="176.3" r="3.0" fill="rgb(95,159,0)" opacity="0.8"/>
  <circle cx="502.1" cy="310.8" r="3.0" fill="rgb(140,114,0)" opacity="0.8"/>
  <circle cx="408.1" cy="230.6" r="3.0" fill="rgb(254,0,0)" opacity="0.8"/>
  <circle cx="262.7" cy="220.3" r="3.0" fill="rgb(254,0,0)" opacity="0.8"/>
  <circle cx="420.5" cy="295.3" r="3.0" fill="rgb(34,220,0)" opacity="0.8"/>
  <circle cx="332.5" cy="216.1" r="3.0" fill="rgb(180,74,0)" opacity="0.8"/>
  <circle cx="293.2" cy="83.1" r="3.0" fill="rgb(0,12,242)" opacity="0.8"/>
  <circle cx="371.6" cy="278.8" r="3.0" fill="rgb(23,231,0)" opacity="0.8"/>
  <circle cx="544.8" cy="573.3" r="3.0" fill="rgb(123,131,0)" opacity="0.8"/>
  <circle cx="403.8" cy="421.3" r="3.0" fill="rgb(196,58,0)" opacity="0.8"/>
  <circle cx="370.6" cy="354.0" r="3.0" fill="rgb(80,174,0)" opacity="0.8"/>
  <circle cx="257.1" cy="204.3" r="3.0" fill="rgb(0,150,104)" opacity="0.8"/>
  <circle cx="248.1" cy="314.3" r="3.0" fill="rgb(205,49,0)" opacity="0.8"/>
  <circle cx="329.1" cy="378.8" r="3.0" fill="rgb(190,64,0)" opacity="0.8"/>
  <circle cx="396.1" cy="283.9" r="3.0" fill="rgb(5,249,0)" opacity="0.8"/>
  <circle cx="525.7" cy="596.2" r="3.0" fill="rgb(202,52,0)" opacity="0.8"/>
  <circle cx="540.6" cy="484.4" r="3.0" fill="rgb(0,127,127)" opacity="0.8"/>
  <circle cx="394.6" cy="246.0" r="3.0" fill="rgb(125,129,0)" opacity="0.8"/>
  <circle cx="482.1" cy="212.0" r="3.0" fill="rgb(55,199,0)" opacity="0.8"/>
  <circle cx="475.9" cy="461.9" r="3.0" fill="rgb(178,76,0)" opacity="0.8"/>
  <circle cx="417.8" cy="284.9" r="3.0" fill="rgb(46,208,0)" opacity="0.8"/>
  <circle cx="269.2" cy="234.9" r="3.0" fill="rgb(243,11,0)" opacity="0.8"/>
  <circle cx="343.6" cy="243.7" r="3.0" fill="rgb(100,154,0)" opacity="0.8"/>
  <circle cx="322.9" cy="436.4" r="3.0" fill="rgb(245,9,0)" opacity="0.8"/>
  <circle cx="266.2" cy="228.5" r="3.0" fill="rgb(250,4,0)" opacity="0.8"/>
  <circle cx="323.7" cy="411.2" r="3.0" fill="rgb(0,194,60)" opacity="0.8"/>
  <circle cx="431.6" cy="353.1" r="3.0" fill="rgb(84,170,0)" opacity="0.8"/>
  <circle cx="353.9" cy="168.6" r="3.0" fill="rgb(231,23,0)" opacity="0.8"/>
  <circle cx="573.9" cy="358.9" r="3.0" fill="rgb(0,164,90)" opacity="0.8"/>
  <circle cx="245.7" cy="277.7" r="3.0" fill="rgb(249,5,0)" opacity="0.8"/>
  <circle cx="386.3" cy="278.8" r="3.0" fill="rgb(11,243,0)" opacity="0.8"/>
  <circle cx="370.0" cy="205.7" r="3.0" fill="rgb(249,5,0)" opacity="0.8"/>
  <circle cx="270.8" cy="139.7" r="3.0" fill="rgb(0,236,18)" opacity="0.8"/>
  <circle cx="321.8" cy="266.4" r="3.0" fill="rgb(119,135,0)" opacity="0.8"/>
  <circle cx="281.2" cy="156.4" r="3.0" fill="rgb(191,63,0)" opacity="0.8"/>
  <circle cx="411.4" cy="364.9" r="3.0" fill="rgb(70,184,0)" opacity="0.8"/>
  <circle cx="420.0" cy="454.4" r="3.0" fill="rgb(254,0,0)" opacity="0.8"/>
  <circle cx="277.9" cy="121.4" r="3.0" fill="rgb(0,88,166)" opacity="0.8"/>
  <circle cx="411.0" cy="90.0" r="3.0" fill="rgb(0,144,110)" opacity="0.8"/>
  <circle cx="425.2" cy="360.9" r="3.0" fill="rgb(79,175,0)" opacity="0.8"/>
  <circle cx="491.5" cy="369.3" r="3.0" fill="rgb(205,49,0)" opacity="0.8"/>
  <circle cx="405.2" cy="151.5" r="3.0" fill="rgb(107,147,0)" opacity="0.8"/>
  <circle cx="390.6" cy="266.0" r="3.0" fill="rgb(27,227,0)" opacity="0.8"/>
  <circle cx="379.3" cy="276.5" r="3.0" fill="rgb(17,237,0)" opacity="0.8"/>
  <circle cx="562.1" cy="186.6" r="3.0" fill="rgb(0,159,95)" opacity="0.8"/>
  <circle cx="271.5" cy="362.5" r="3.0" fill="rgb(0,89,165)" opacity="0.8"/>
  <circle cx="385.7" cy="480.2" r="3.0" fill="rgb(60,194,0)" opacity="0.8"/>
  <circle cx="450.4" cy="468.0" r="3.0" fill="rgb(221,33,0)" opacity="0.8"/>
  <circle cx="314.2" cy="314.8" r="3.0" fill="rgb(147,107,0)" opacity="0.8"/>
  <circle cx="372.0" cy="452.1" r="3.0" fill="rgb(0,101,153)" opacity="0.8"/>
  <circle cx="323.4" cy="393.2" r="3.0" fill="rgb(220,34,0)" opacity="0.8"/>
  <circle cx="499.9" cy="504.7" r="3.0" fill="rgb(0,109,145)" opacity="0.8"/>
  <circle cx="436.7" cy="199.6" r="3.0" fill="rgb(156,98,0)" opacity="0.8"/>
  <circle cx="399.8" cy="165.2" r="3.0" fill="rgb(156,98,0)" opacity="0.8"/>
  <circle cx="244.0" cy="234.4" r="3.0" fill="rgb(78,176,0)" opacity="0.8"/>
  <circle cx="326.4" cy="156.4" r="3.0" fill="rgb(221,33,0)" opacity="0.8"/>
  <circle cx="443.7" cy="337.5" r="3.0" fill="rgb(172,82,0)" opacity="0.8"/>
  <circle cx="539.4" cy="571.3" r="3.0" fill="rgb(46,208,0)" opacity="0.8"/>
  <circle cx="297.8" cy="374.4" r="3.0" fill="rgb(0,27,227)" opacity="0.8"/>
  <circle cx="549.6" cy="147.5" r="3.0" fill="rgb(0,62,192)" opacity="0.8"/>
  <circle cx="396.7" cy="167.4" r="3.0" fill="rgb(168,86,0)" opacity="0.8"/>
  <circle cx="454.1" cy="439.0" r="3.0" fill="rgb(251,3,0)" opacity="0.8"/>
  <circle cx="450.4" cy="391.1" r="3.0" fill="rgb(235,19,0)" opacity="0.8"/>
  <circle cx="326.0" cy="434.9" r="3.0" fill="rgb(82,172,0)" opacity="0.8"/>
  <circle cx="247.8" cy="215.8" r="3.0" fill="rgb(233,21,0)" opacity="0.8"/>
  <circle cx="465.4" cy="271.1" r="3.0" fill="rgb(204,50,0)" opacity="0.8"/>
  <circle cx="509.7" cy="302.7" r="3.0" fill="rgb(107,147,0)" opacity="0.8"/>
  <circle cx="310.6" cy="240.0" r="3.0" fill="rgb(164,90,0)" opacity="0.8"/>
  <circle cx="279.7" cy="128.4" r="3.0" fill="rgb(0,250,4)" opacity="0.8"/>
  <circle cx="370.1" cy="38.7" r="3.0" fill="rgb(0,2,252)" opacity="0.8"/>
  <circle cx="586.7" cy="208.6" r="3.0" fill="rgb(0,0,254)" opacity="0.8"/>
  <circle cx="451.3" cy="232.6" r="3.0" fill="rgb(183,71,0)" opacity="0.8"/>
  <circle cx="281.4" cy="388.6" r="3.0" fill="rgb(236,18,0)" opacity="0.8"/>
  <circle cx="256.3" cy="171.8" r="3.0" fill="rgb(115,139,0)" opacity="0.8"/>
  <circle cx="552.6" cy="496.9" r="3.0" fill="rgb(0,39,215)" opacity="0.8"/>
  <circle cx="250.2" cy="320.1" r="3.0" fill="rgb(191,63,0)" opacity="0.8"/>
  <circle cx="327.8" cy="418.5" r="3.0" fill="rgb(247,7,0)" opacity="0.8"/>
  <circle cx="350.8" cy="121.0" r="3.0" fill="rgb(86,168,0)" opacity="0.8"/>
  <circle cx="410.7" cy="158.9" r="3.0" fill="rgb(116,138,0)" opacity="0.8"/>
  <circle cx="555.3" cy="228.0" r="3.0" fill="rgb(0,103,151)" opacity="0.8"/>
  <circle cx="262.4" cy="159.5" r="3.0" fill="rgb(95,159,0)" opacity="0.8"/>
  <circle cx="448.7" cy="89.0" r="3.0" fill="rgb(0,73,181)" opacity="0.8"/>
  <circle cx="389.5" cy="311.9" r="3.0" fill="rgb(8,246,0)" opacity="0.8"/>
  <circle cx="450.9" cy="428.7" r="3.0" fill="rgb(254,0,0)" opacity="0.8"/>
  <circle cx="412.0" cy="294.0" r="3.0" fill="rgb(11,243,0)" opacity="0.8"/>
  <circle cx="565.3" cy="171.5" r="3.0" fill="rgb(0,64,190)" opacity="0.8"/>
  <circle cx="294.8" cy="346.6" r="3.0" fill="rgb(0,105,149)" opacity="0.8"/>
  <circle cx="558.4" cy="513.6" r="3.0" fill="rgb(0,0,254)" opacity="0.8"/>
  <circle cx="246.9" cy="250.9" r="3.0" fill="rgb(251,3,0)" opacity="0.8"/>
  <circle cx="580.1" cy="303.5" r="3.0" fill="rgb(0,111,143)" opacity="0.8"/>
  <circle cx="608.7" cy="267.5" r="3.0" fill="rgb(0,0,254)" opacity="0.8"/>
  <circle cx="297.0" cy="354.8" r="3.0" fill="rgb(0,122,132)" opacity="0.8"/>
  <circle cx="593.6" cy="295.2" r="3.0" fill="rgb(0,58,196)" opacity="0.8"/>
  <circle cx="504.6" cy="372.0" r="3.0" fill="rgb(166,88,0)" opacity="0.8"/>
  <circle cx="321.9" cy="395.3" r="3.0" fill="rgb(0,114,140)" opacity="0.8"/>
  <circle cx="391.4" cy="315.4" r="3.0" fill="rgb(9,245,0)" opacity="0.8"/>
  <circle cx="255.7" cy="295.8" r="3.0" fill="rgb(36,218,0)" opacity="0.8"/>
  <circle cx="438.1" cy="334.2" r="3.0" fill="rgb(107,147,0)" opacity="0.8"/>
  <circle cx="457.1" cy="464.1" r="3.0" fill="rgb(217,37,0)" opacity="0.8"/>
  <circle cx="286.1" cy="115.3" r="3.0" fill="rgb(0,180,74)" opacity="0.8"/>
  <circle cx="338.7" cy="364.7" r="3.0" fill="rgb(151,103,0)" opacity="0.8"/>
  <circle cx="348.6" cy="453.2" r="3.0" fill="rgb(251,3,0)" opacity="0.8"/>
  <circle cx="477.1" cy="308.5" r="3.0" fill="rgb(212,42,0)" opacity="0.8"/>
  <circle cx="267.4" cy="363.1" r="3.0" fill="rgb(186,68,0)" opacity="0.8"/>
  <circle cx="290.9" cy="61.7" r="3.0" fill="rgb(0,10,244)" opacity="0.8"/>
  <circle cx="297.3" cy="77.7" r="3.0" fill="rgb(0,11,243)" opacity="0.8"/>
  <circle cx="395.4" cy="349.0" r="3.0" fill="rgb(45,209,0)" opacity="0.8"/>
  <circle cx="240.2" cy="243.4" r="3.0" fill="rgb(213,41,0)" opacity="0.8"/>
  <circle cx="282.3" cy="328.0" r="3.0" fill="rgb(227,27,0)" opacity="0.8"/>
  <circle cx="438.6" cy="373.9" r="3.0" fill="rgb(154,100,0)" opacity="0.8"/>
  <circle cx="296.1" cy="197.9" r="3.0" fill="rgb(246,8,0)" opacity="0.8"/>
  <circle cx="240.1" cy="258.7" r="3.0" fill="rgb(166,88,0)" opacity="0.8"/>
  <circle cx="309.3" cy="88.6" r="3.0" fill="rgb(0,125,129)" opacity="0.8"/>
  <circle cx="519.0" cy="516.2" r="3.0" fill="rgb(0,8,246)" opacity="0.8"/>
  <circle cx="347.3" cy="424.9" r="3.0" fill="rgb(235,19,0)" opacity="0.8"/>
  <circle cx="281.6" cy="314.0" r="3.0" fill="rgb(220,34,0)" opacity="0.8"/>
  <circle cx="376.1" cy="208.6" r="3.0" fill="rgb(251,3,0)" opacity="0.8"/>
  <circle cx="385.4" cy="211.8" r="3.0" fill="rgb(254,0,0)" opacity="0.8"/>
  <circle cx="345.6" cy="370.2" r="3.0" fill="rgb(146,108,0)" opacity="0.8"/>
  <circle cx="533.9" cy="260.9" r="3.0" fill="rgb(0,226,28)" opacity="0.8"/>
  <circle cx="358.3" cy="206.4" r="3.0" fill="rgb(232,22,0)" opacity="0.8"/>
  <circle cx="278.4" cy="88.8" r="3.0" fill="rgb(0,0,254)" opacity="0.8"/>
  <circle cx="425.8" cy="291.8" r="3.0" fill="rgb(82,172,0)" opacity="0.8"/>
  <circle cx="274.6" cy="299.1" r="3.0" fill="rgb(0,3,251)" opacity="0.8"/>
  <circle cx="437.7" cy="326.6" r="3.0" fill="rgb(109,145,0)" opacity="0.8"/>
  <circle cx="297.3" cy="355.0" r="3.0" fill="rgb(0,120,134)" opacity="0.8"/>
  <circle cx="402.0" cy="273.9" r="3.0" fill="rgb(24,230,0)" opacity="0.8"/>
  <circle cx="250.8" cy="355.5" r="3.0" fill="rgb(0,150,104)" opacity="0.8"/>
  <circle cx="262.4" cy="347.7" r="3.0" fill="rgb(248,6,0)" opacity="0.8"/>
  <circle cx="439.7" cy="360.7" r="3.0" fill="rgb(138,116,0)" opacity="0.8"/>
  <circle cx="536.4" cy="434.1" r="3.0" fill="rgb(19,235,0)" opacity="0.8"/>
  <circle cx="375.7" cy="256.1" r="3.0" fill="rgb(46,208,0)" opacity="0.8"/>
  <circle cx="376.0" cy="265.7" r="3.0" fill="rgb(30,224,0)" opacity="0.8"/>
  <circle cx="262.8" cy="155.4" r="3.0" fill="rgb(0,251,3)" opacity="0.8"/>
  <circle cx="481.6" cy="136.7" r="3.0" fill="rgb(0,133,121)" opacity="0.8"/>
  <circle cx="303.7" cy="132.5" r="3.0" fill="rgb(129,125,0)" opacity="0.8"/>
  <circle cx="264.9" cy="403.8" r="3.0" fill="rgb(0,189,65)" opacity="0.8"/>
  <circle cx="552.1" cy="411.9" r="3.0" fill="rgb(0,236,18)" opacity="0.8"/>
  <circle cx="341.4" cy="97.8" r="3.0" fill="rgb(0,240,14)" opacity="0.8"/>
  <circle cx="255.6" cy="335.1" r="3.0" fill="rgb(237,17,0)" opacity="0.8"/>
  <circle cx="262.3" cy="191.7" r="3.0" fill="rgb(0,62,192)" opacity="0.8"/>
  <circle cx="431.6" cy="491.8" r="3.0" fill="rgb(0,65,189)" opacity="0.8"/>
  <circle cx="352.1" cy="33.0" r="3.0" fill="rgb(0,2,252)" opacity="0.8"/>
  <circle cx="561.3" cy="160.1" r="3.0" fill="rgb(0,24,230)" opacity="0.8"/>
  <circle cx="483.2" cy="354.3" r="3.0" fill="rgb(224,30,0)" opacity="0.8"/>
  <circle cx="398.0" cy="476.0" r="3.0" fill="rgb(0,140,114)" opacity="0.8"/>
  <circle cx="336.7" cy="222.2" r="3.0" fill="rgb(159,95,0)" opacity="0.8"/>
  <circle cx="593.7" cy="438.7" r="3.0" fill="rgb(0,51,203)" opacity="0.8"/>
  <circle cx="423.2" cy="386.1" r="3.0" fill="rgb(130,124,0)" opacity="0.8"/>
  <circle cx="399.7" cy="309.3" r="3.0" fill="rgb(1,253,0)" opacity="0.8"/>
  <circle cx="297.8" cy="354.7" r="3.0" fill="rgb(0,3,251)" opacity="0.8"/>
  <circle cx="358.9" cy="432.2" r="3.0" fill="rgb(236,18,0)" opacity="0.8"/>
  <circle cx="432.9" cy="228.3" r="3.0" fill="rgb(219,35,0)" opacity="0.8"/>
  <circle cx="521.7" cy="606.9" r="3.0" fill="rgb(242,12,0)" opacity="0.8"/>
  <circle cx="368.6" cy="465.8" r="3.0" fill="rgb(246,8,0)" opacity="0.8"/>
  <circle cx="480.7" cy="175.0" r="3.0" fill="rgb(0,232,22)" opacity="0.8"/>
  <circle cx="337.9" cy="49.2" r="3.0" fill="rgb(0,10,244)" opacity="0.8"/>
  <circle cx="292.1" cy="40.4" r="3.0" fill="rgb(0,72,182)" opacity="0.8"/>
  <circle cx="265.4" cy="160.9" r="3.0" fill="rgb(0,46,208)" opacity="0.8"/>
  <circle cx="435.1" cy="283.3" r="3.0" fill="rgb(247,7,0)" opacity="0.8"/>
  <circle cx="398.9" cy="479.9" r="3.0" fill="rgb(223,31,0)" opacity="0.8"/>
  <circle cx="369.9" cy="46.6" r="3.0" fill="rgb(0,18,236)" opacity="0.8"/>
  <circle cx="438.2" cy="268.9" r="3.0" fill="rgb(253,1,0)" opacity="0.8"/>
  <circle cx="283.7" cy="328.3" r="3.0" fill="rgb(224,30,0)" opacity="0.8"/>
  <circle cx="434.8" cy="435.2" r="3.0" fill="rgb(248,6,0)" opacity="0.8"/>
  <circle cx="605.7" cy="247.9" r="3.0" fill="rgb(0,4,250)" opacity="0.8"/>
  <circle cx="502.7" cy="494.4" r="3.0" fill="rgb(0,202,52)" opacity="0.8"/>
  <circle cx="561.4" cy="368.6" r="3.0" fill="rgb(0,213,41)" opacity="0.8"/>
  <circle cx="471.6" cy="311.2" r="3.0" fill="rgb(228,26,0)" opacity="0.8"/>
  <circle cx="437.7" cy="299.5" r="3.0" fill="rgb(225,29,0)" opacity="0.8"/>
  <circle cx="249.2" cy="228.4" r="3.0" fill="rgb(2,252,0)" opacity="0.8"/>
  <circle cx="311.3" cy="68.4" r="3.0" fill="rgb(0,23,231)" opacity="0.8"/>
  <circle cx="488.0" cy="138.9" r="3.0" fill="rgb(0,122,132)" opacity="0.8"/>
  <circle cx="555.6" cy="479.1" r="3.0" fill="rgb(0,95,159)" opacity="0.8"/>
  <circle cx="306.6" cy="103.8" r="3.0" fill="rgb(0,222,32)" opacity="0.8"/>
  <circle cx="329.4" cy="439.0" r="3.0" fill="rgb(87,167,0)" opacity="0.8"/>
  <circle cx="350.2" cy="183.9" r="3.0" fill="rgb(254,0,0)" opacity="0.8"/>
  <circle cx="460.4" cy="364.2" r="3.0" fill="rgb(253,1,0)" opacity="0.8"/>
  <circle cx="451.5" cy="355.9" r="3.0" fill="rgb(229,25,0)" opacity="0.8"/>
  <circle cx="281.3" cy="335.5" r="3.0" fill="rgb(234,20,0)" opacity="0.8"/>
  <circle cx="345.7" cy="229.6" r="3.0" fill="rgb(130,124,0)" opacity="0.8"/>
  <circle cx="289.4" cy="377.3" r="3.0" fill="rgb(0,56,198)" opacity="0.8"/>
  <circle cx="424.8" cy="128.7" r="3.0" fill="rgb(0,249,5)" opacity="0.8"/>
  <circle cx="447.9" cy="292.7" r="3.0" fill="rgb(254,0,0)" opacity="0.8"/>
  <circle cx="432.9" cy="302.9" r="3.0" fill="rgb(122,132,0)" opacity="0.8"/>
  <circle cx="285.1" cy="166.1" r="3.0" fill="rgb(228,26,0)" opacity="0.8"/>
  <circle cx="517.4" cy="281.9" r="3.0" fill="rgb(56,198,0)" opacity="0.8"/>
  <circle cx="560.1" cy="479.4" r="3.0" fill="rgb(0,79,175)" opacity="0.8"/>
  <circle cx="455.1" cy="479.8" r="3.0" fill="rgb(175,79,0)" opacity="0.8"/>
  <circle cx="307.1" cy="303.0" r="3.0" fill="rgb(157,97,0)" opacity="0.8"/>
  <circle cx="270.7" cy="319.4" r="3.0" fill="rgb(0,218,36)" opacity="0.8"/>
  <circle cx="313.6" cy="70.3" r="3.0" fill="rgb(0,37,217)" opacity="0.8"/>
  <circle cx="439.8" cy="345.1" r="3.0" fill="rgb(124,130,0)" opacity="0.8"/>
  <circle cx="426.0" cy="444.4" r="3.0" fill="rgb(250,4,0)" opacity="0.8"/>
  <circle cx="510.9" cy="124.0" r="3.0" fill="rgb(0,30,224)" opacity="0.8"/>
  <circle cx="547.6" cy="142.1" r="3.0" fill="rgb(0,42,212)" opacity="0.8"/>
  <circle cx="560.1" cy="203.3" r="3.0" fill="rgb(0,50,204)" opacity="0.8"/>
  <circle cx="308.5" cy="418.5" r="3.0" fill="rgb(113,141,0)" opacity="0.8"/>
  <circle cx="268.7" cy="44.7" r="3.0" fill="rgb(0,140,114)" opacity="0.8"/>
  <circle cx="346.4" cy="371.3" r="3.0" fill="rgb(147,107,0)" opacity="0.8"/>
  <circle cx="458.4" cy="96.8" r="3.0" fill="rgb(0,77,177)" opacity="0.8"/>
  <circle cx="544.9" cy="206.9" r="3.0" fill="rgb(0,101,153)" opacity="0.8"/>
  <circle cx="291.8" cy="149.6" r="3.0" fill="rgb(186,68,0)" opacity="0.8"/>
  <circle cx="320.9" cy="199.5" r="3.0" fill="rgb(231,23,0)" opacity="0.8"/>
  <circle cx="330.4" cy="431.6" r="3.0" fill="rgb(19,235,0)" opacity="0.8"/>
  <circle cx="418.9" cy="308.9" r="3.0" fill="rgb(16,238,0)" opacity="0.8"/>
  <circle cx="353.7" cy="312.4" r="3.0" fill="rgb(60,194,0)" opacity="0.8"/>
  <circle cx="270.5" cy="265.0" r="3.0" fill="rgb(0,53,201)" opacity="0.8"/>
  <circle cx="369.1" cy="456.3" r="3.0" fill="rgb(255,0,0)" opacity="0.8"/>
  <circle cx="279.0" cy="291.4" r="3.0" fill="rgb(0,25,229)" opacity="0.8"/>
  <circle cx="377.1" cy="420.6" r="3.0" fill="rgb(201,53,0)" opacity="0.8"/>
  <circle cx="414.4" cy="283.6" r="3.0" fill="rgb(34,220,0)" opacity="0.8"/>
  <circle cx="321.2" cy="354.3" r="3.0" fill="rgb(171,83,0)" opacity="0.8"/>
  <circle cx="552.9" cy="543.9" r="3.0" fill="rgb(0,111,143)" opacity="0.8"/>
  <circle cx="469.4" cy="117.6" r="3.0" fill="rgb(0,112,142)" opacity="0.8"/>
  <circle cx="491.6" cy="124.5" r="3.0" fill="rgb(0,76,178)" opacity="0.8"/>
  <circle cx="348.6" cy="188.1" r="3.0" fill="rgb(254,0,0)" opacity="0.8"/>
  <circle cx="420.6" cy="404.3" r="3.0" fill="rgb(170,84,0)" opacity="0.8"/>
  <circle cx="570.4" cy="198.4" r="3.0" fill="rgb(0,16,238)" opacity="0.8"/>
  <circle cx="325.8" cy="199.0" r="3.0" fill="rgb(232,22,0)" opacity="0.8"/>
  <circle cx="412.3" cy="336.6" r="3.0" fill="rgb(25,229,0)" opacity="0.8"/>
  <circle cx="430.3" cy="280.1" r="3.0" fill="rgb(236,18,0)" opacity="0.8"/>
  <circle cx="577.6" cy="351.6" r="3.0" fill="rgb(0,148,106)" opacity="0.8"/>
  <circle cx="249.2" cy="262.9" r="3.0" fill="rgb(254,0,0)" opacity="0.8"/>
  <circle cx="267.6" cy="361.9" r="3.0" fill="rgb(243,11,0)" opacity="0.8"/>
  <circle cx="247.4" cy="195.1" r="3.0" fill="rgb(128,126,0)" opacity="0.8"/>
  <circle cx="272.3" cy="373.6" r="3.0" fill="rgb(232,22,0)" opacity="0.8"/>
  <circle cx="401.0" cy="194.4" r="3.0" fill="rgb(221,33,0)" opacity="0.8"/>
  <circle cx="438.5" cy="396.7" r="3.0" fill="rgb(198,56,0)" opacity="0.8"/>
  <circle cx="515.5" cy="192.8" r="3.0" fill="rgb(0,166,88)" opacity="0.8"/>
  <circle cx="309.7" cy="362.7" r="3.0" fill="rgb(0,20,234)" opacity="0.8"/>
  <circle cx="310.3" cy="74.0" r="3.0" fill="rgb(0,42,212)" opacity="0.8"/>
  <circle cx="389.8" cy="481.7" r="3.0" fill="rgb(47,207,0)" opacity="0.8"/>
  <circle cx="455.0" cy="498.4" r="3.0" fill="rgb(19,235,0)" opacity="0.8"/>
  <circle cx="375.9" cy="53.1" r="3.0" fill="rgb(0,39,215)" opacity="0.8"/>
  <circle cx="428.6" cy="254.0" r="3.0" fill="rgb(253,1,0)" opacity="0.8"/>
  <circle cx="269.1" cy="143.2" r="3.0" fill="rgb(0,251,3)" opacity="0.8"/>
  <circle cx="432.2" cy="286.6" r="3.0" fill="rgb(227,27,0)" opacity="0.8"/>
  <circle cx="345.3" cy="175.3" r="3.0" fill="rgb(248,6,0)" opacity="0.8"/>
  <circle cx="317.0" cy="407.0" r="3.0" fill="rgb(246,8,0)" opacity="0.8"/>
  <circle cx="489.6" cy="434.7" r="3.0" fill="rgb(185,69,0)" opacity="0.8"/>
  <circle cx="564.2" cy="309.0" r="3.0" fill="rgb(0,173,81)" opacity="0.8"/>
  <circle cx="282.1" cy="200.3" r="3.0" fill="rgb(252,2,0)" opacity="0.8"/>
  <circle cx="608.5" cy="255.4" r="3.0" fill="rgb(0,5,249)" opacity="0.8"/>
  <circle cx="269.2" cy="367.3" r="3.0" fill="rgb(234,20,0)" opacity="0.8"/>
  <circle cx="290.1" cy="82.1" r="3.0" fill="rgb(0,3,251)" opacity="0.8"/>
  <circle cx="525.4" cy="143.6" r="3.0" fill="rgb(0,36,218)" opacity="0.8"/>
  <circle cx="569.1" cy="501.1" r="3.0" fill="rgb(0,3,251)" opacity="0.8"/>
  <circle cx="274.5" cy="365.9" r="3.0" fill="rgb(0,84,170)" opacity="0.8"/>
  <circle cx="311.7" cy="366.3" r="3.0" fill="rgb(0,25,229)" opacity="0.8"/>
  <circle cx="366.1" cy="378.4" r="3.0" fill="rgb(128,126,0)" opacity="0.8"/>
  <circle cx="425.7" cy="328.7" r="3.0" fill="rgb(38,216,0)" opacity="0.8"/>
  <circle cx="440.5" cy="498.1" r="3.0" fill="rgb(0,223,31)" opacity="0.8"/>
  <circle cx="293.6" cy="73.2" r="3.0" fill="rgb(0,0,254)" opacity="0.8"/>
  <circle cx="411.0" cy="308.0" r="3.0" fill="rgb(5,249,0)" opacity="0.8"/>
  <circle cx="521.4" cy="506.7" r="3.0" fill="rgb(0,54,200)" opacity="0.8"/>
  <circle cx="428.5" cy="242.6" r="3.0" fill="rgb(245,9,0)" opacity="0.8"/>
  <circle cx="433.1" cy="407.9" r="3.0" fill="rgb(204,50,0)" opacity="0.8"/>
  <circle cx="539.6" cy="225.1" r="3.0" fill="rgb(0,150,104)" opacity="0.8"/>
  <circle cx="347.3" cy="254.2" r="3.0" fill="rgb(78,176,0)" opacity="0.8"/>
  <circle cx="432.2" cy="428.9" r="3.0" fill="rgb(238,16,0)" opacity="0.8"/>
  <circle cx="281.9" cy="301.1" r="3.0" fill="rgb(0,33,221)" opacity="0.8"/>
  <circle cx="269.2" cy="295.7" r="3.0" fill="rgb(237,17,0)" opacity="0.8"/>
  <circle cx="333.4" cy="364.7" r="3.0" fill="rgb(161,93,0)" opacity="0.8"/>
  <circle cx="241.9" cy="259.9" r="3.0" fill="rgb(130,124,0)" opacity="0.8"/>
  <circle cx="537.4" cy="148.1" r="3.0" fill="rgb(0,157,97)" opacity="0.8"/>
  <circle cx="567.0" cy="484.0" r="3.0" fill="rgb(0,44,210)" opacity="0.8"/>
  <circle cx="287.8" cy="321.0" r="3.0" fill="rgb(0,0,254)" opacity="0.8"/>
  <circle cx="406.3" cy="262.2" r="3.0" fill="rgb(83,171,0)" opacity="0.8"/>
  <circle cx="463.1" cy="421.8" r="3.0" fill="rgb(251,3,0)" opacity="0.8"/>
  <circle cx="398.9" cy="84.9" r="3.0" fill="rgb(0,143,111)" opacity="0.8"/>
  <circle cx="462.4" cy="386.4" r="3.0" fill="rgb(254,0,0)" opacity="0.8"/>
  <circle cx="240.1" cy="262.5" r="3.0" fill="rgb(216,38,0)" opacity="0.8"/>
  <circle cx="395.8" cy="404.0" r="3.0" fill="rgb(155,99,0)" opacity="0.8"/>
  <circle cx="475.5" cy="368.3" r="3.0" fill="rgb(243,11,0)" opacity="0.8"/>
  <circle cx="446.5" cy="379.3" r="3.0" fill="rgb(208,46,0)" opacity="0.8"/>
  <circle cx="427.9" cy="291.2" r="3.0" fill="rgb(115,139,0)" opacity="0.8"/>
  <circle cx="341.4" cy="434.2" r="3.0" fill="rgb(0,206,48)" opacity="0.8"/>
  <circle cx="385.7" cy="278.4" r="3.0" fill="rgb(11,243,0)" opacity="0.8"/>
  <circle cx="436.9" cy="298.6" r="3.0" fill="rgb(221,33,0)" opacity="0.8"/>
  <circle cx="519.1" cy="512.6" r="3.0" fill="rgb(0,22,232)" opacity="0.8"/>
  <circle cx="379.8" cy="385.4" r="3.0" fill="rgb(125,129,0)" opacity="0.8"/>
  <circle cx="494.4" cy="103.2" r="3.0" fill="rgb(0,20,234)" opacity="0.8"/>
  <circle cx="362.8" cy="33.1" r="3.0" fill="rgb(0,0,254)" opacity="0.8"/>
  <circle cx="531.3" cy="354.3" r="3.0" fill="rgb(68,186,0)" opacity="0.8"/>
  <circle cx="386.8" cy="237.7" r="3.0" fill="rgb(145,109,0)" opacity="0.8"/>
  <circle cx="400.7" cy="75.0" r="3.0" fill="rgb(0,103,151)" opacity="0.8"/>
  <circle cx="273.8" cy="132.1" r="3.0" fill="rgb(0,158,96)" opacity="0.8"/>
  <circle cx="560.9" cy="524.0" r="3.0" fill="rgb(0,22,232)" opacity="0.8"/>
  <circle cx="447.8" cy="498.2" r="3.0" fill="rgb(22,232,0)" opacity="0.8"/>
  <circle cx="278.8" cy="118.1" r="3.0" fill="rgb(0,68,186)" opacity="0.8"/>
  <circle cx="411.5" cy="273.5" r="3.0" fill="rgb(54,200,0)" opacity="0.8"/>
  <circle cx="293.4" cy="381.0" r="3.0" fill="rgb(19,235,0)" opacity="0.8"/>
  <circle cx="354.7" cy="303.3" r="3.0" fill="rgb(53,201,0)" opacity="0.8"/>
  <circle cx="273.8" cy="237.8" r="3.0" fill="rgb(236,18,0)" opacity="0.8"/>
  <circle cx="280.9" cy="297.3" r="3.0" fill="rgb(0,12,242)" opacity="0.8"/>
  <circle cx="286.3" cy="190.2" r="3.0" fill="rgb(254,0,0)" opacity="0.8"/>
  <circle cx="367.4" cy="371.7" r="3.0" fill="rgb(114,140,0)" opacity="0.8"/>
  <circle cx="258.0" cy="173.7" r="3.0" fill="rgb(160,94,0)" opacity="0.8"/>
  <circle cx="444.4" cy="300.6" r="3.0" fill="rgb(251,3,0)" opacity="0.8"/>
  <circle cx="404.1" cy="488.0" r="3.0" fill="rgb(39,215,0)" opacity="0.8"/>
  <circle cx="374.6" cy="401.8" r="3.0" fill="rgb(164,90,0)" opacity="0.8"/>
  <circle cx="385.7" cy="185.7" r="3.0" fill="rgb(228,26,0)" opacity="0.8"/>
  <circle cx="571.3" cy="377.3" r="3.0" fill="rgb(0,175,79)" opacity="0.8"/>
  <circle cx="427.8" cy="442.3" r="3.0" fill="rgb(249,5,0)" opacity="0.8"/>
  <circle cx="548.2" cy="529.3" r="3.0" fill="rgb(0,22,232)" opacity="0.8"/>
  <circle cx="535.4" cy="517.3" r="3.0" fill="rgb(0,1,253)" opacity="0.8"/>
  <circle cx="561.5" cy="494.5" r="3.0" fill="rgb(0,28,226)" opacity="0.8"/>
  <circle cx="470.2" cy="273.5" r="3.0" fill="rgb(194,60,0)" opacity="0.8"/>
  <circle cx="285.2" cy="396.0" r="3.0" fill="rgb(217,37,0)" opacity="0.8"/>
  <circle cx="280.3" cy="388.0" r="3.0" fill="rgb(203,51,0)" opacity="0.8"/>
  <circle cx="567.3" cy="340.1" r="3.0" fill="rgb(0,182,72)" opacity="0.8"/>
  <circle cx="356.5" cy="209.4" r="3.0" fill="rgb(218,36,0)" opacity="0.8"/>
  <circle cx="297.0" cy="345.8" r="3.0" fill="rgb(0,0,254)" opacity="0.8"/>
  <circle cx="333.5" cy="203.1" r="3.0" fill="rgb(221,33,0)" opacity="0.8"/>
  <circle cx="418.6" cy="259.3" r="3.0" fill="rgb(239,15,0)" opacity="0.8"/>
  <circle cx="263.5" cy="172.3" r="3.0" fill="rgb(0,68,186)" opacity="0.8"/>
  <circle cx="320.6" cy="417.4" r="3.0" fill="rgb(1,253,0)" opacity="0.8"/>
  <circle cx="292.9" cy="373.6" r="3.0" fill="rgb(245,9,0)" opacity="0.8"/>
  <circle cx="259.5" cy="214.7" r="3.0" fill="rgb(254,0,0)" opacity="0.8"/>
  <circle cx="283.1" cy="237.7" r="3.0" fill="rgb(220,34,0)" opacity="0.8"/>
  <circle cx="471.5" cy="449.7" r="3.0" fill="rgb(212,42,0)" opacity="0.8"/>
  <circle cx="323.8" cy="189.0" r="3.0" fill="rgb(250,4,0)" opacity="0.8"/>
  <circle cx="275.9" cy="293.2" r="3.0" fill="rgb(223,31,0)" opacity="0.8"/>
  <circle cx="407.8" cy="370.7" r="3.0" fill="rgb(81,173,0)" opacity="0.8"/>
  <circle cx="423.0" cy="71.2" r="3.0" fill="rgb(0,61,193)" opacity="0.8"/>
  <circle cx="245.2" cy="269.5" r="3.0" fill="rgb(249,5,0)" opacity="0.8"/>
  <circle cx="265.8" cy="158.4" r="3.0" fill="rgb(0,50,204)" opacity="0.8"/>
  <circle cx="246.4" cy="223.5" r="3.0" fill="rgb(237,17,0)" opacity="0.8"/>
  <circle cx="510.5" cy="277.1" r="3.0" fill="rgb(74,180,0)" opacity="0.8"/>
  <circle cx="356.8" cy="458.4" r="3.0" fill="rgb(32,222,0)" opacity="0.8"/>
  <circle cx="578.1" cy="289.9" r="3.0" fill="rgb(0,106,148)" opacity="0.8"/>
  <circle cx="243.6" cy="284.9" r="3.0" fill="rgb(238,16,0)" opacity="0.8"/>
  <circle cx="280.8" cy="370.9" r="3.0" fill="rgb(254,0,0)" opacity="0.8"/>
  <circle cx="436.5" cy="472.9" r="3.0" fill="rgb(229,25,0)" opacity="0.8"/>
  <circle cx="300.8" cy="63.4" r="3.0" fill="rgb(0,0,255)" opacity="0.8"/>
  <circle cx="599.2" cy="471.3" r="3.0" fill="rgb(0,1,253)" opacity="0.8"/>
  <circle cx="345.2" cy="61.6" r="3.0" fill="rgb(0,62,192)" opacity="0.8"/>
  <circle cx="369.6" cy="154.6" r="3.0" fill="rgb(179,75,0)" opacity="0.8"/>
  <circle cx="327.3" cy="441.4" r="3.0" fill="rgb(130,124,0)" opacity="0.8"/>
  <circle cx="333.4" cy="403.3" r="3.0" fill="rgb(0,55,199)" opacity="0.8"/>
  <circle cx="455.5" cy="364.6" r="3.0" fill="rgb(244,10,0)" opacity="0.8"/>
  <circle cx="255.6" cy="210.2" r="3.0" fill="rgb(0,170,84)" opacity="0.8"/>
  <circle cx="360.6" cy="66.7" r="3.0" fill="rgb(0,93,161)" opacity="0.8"/>
  <circle cx="280.4" cy="167.6" r="3.0" fill="rgb(226,28,0)" opacity="0.8"/>
  <circle cx="437.8" cy="436.1" r="3.0" fill="rgb(251,3,0)" opacity="0.8"/>
  <circle cx="345.1" cy="35.6" r="3.0" fill="rgb(0,1,253)" opacity="0.8"/>
  <circle cx="566.5" cy="502.8" r="3.0" fill="rgb(0,3,251)" opacity="0.8"/>
  <circle cx="351.5" cy="463.0" r="3.0" fill="rgb(213,41,0)" opacity="0.8"/>
  <circle cx="481.9" cy="414.0" r="3.0" fill="rgb(222,32,0)" opacity="0.8"/>
  <circle cx="511.9" cy="510.5" r="3.0" fill="rgb(0,39,215)" opacity="0.8"/>
  <circle cx="333.0" cy="284.2" r="3.0" fill="rgb(92,162,0)" opacity="0.8"/>
  <circle cx="395.9" cy="126.9" r="3.0" fill="rgb(47,207,0)" opacity="0.8"/>
  <circle cx="318.0" cy="50.5" r="3.0" fill="rgb(0,0,254)" opacity="0.8"/>
  <circle cx="359.3" cy="248.2" r="3.0" fill="rgb(72,182,0)" opacity="0.8"/>
  <circle cx="240.3" cy="255.9" r="3.0" fill="rgb(221,33,0)" opacity="0.8"/>
  <circle cx="263.8" cy="166.3" r="3.0" fill="rgb(0,90,164)" opacity="0.8"/>
  <circle cx="375.2" cy="160.4" r="3.0" fill="rgb(186,68,0)" opacity="0.8"/>
  <circle cx="525.7" cy="225.8" r="3.0" fill="rgb(0,197,57)" opacity="0.8"/>
  <circle cx="571.6" cy="176.1" r="3.0" fill="rgb(0,14,240)" opacity="0.8"/>
  <circle cx="392.5" cy="393.0" r="3.0" fill="rgb(132,122,0)" opacity="0.8"/>
  <circle cx="545.7" cy="488.7" r="3.0" fill="rgb(0,92,162)" opacity="0.8"/>
  <circle cx="343.2" cy="226.5" r="3.0" fill="rgb(141,113,0)" opacity="0.8"/>
  <circle cx="255.3" cy="201.9" r="3.0" fill="rgb(239,15,0)" opacity="0.8"/>
  <circle cx="547.1" cy="559.3" r="3.0" fill="rgb(0,221,33)" opacity="0.8"/>
  <circle cx="345.1" cy="52.8" r="3.0" fill="rgb(0,27,227)" opacity="0.8"/>
  <circle cx="437.1" cy="378.2" r="3.0" fill="rgb(155,99,0)" opacity="0.8"/>
  <circle cx="360.7" cy="469.8" r="3.0" fill="rgb(178,76,0)" opacity="0.8"/>
  <circle cx="585.5" cy="463.0" r="3.0" fill="rgb(0,40,214)" opacity="0.8"/>
  <circle cx="339.2" cy="72.4" r="3.0" fill="rgb(0,107,147)" opacity="0.8"/>
  <circle cx="450.8" cy="125.4" r="3.0" fill="rgb(0,179,75)" opacity="0.8"/>
  <circle cx="266.2" cy="210.5" r="3.0" fill="rgb(254,0,0)" opacity="0.8"/>
  <circle cx="347.4" cy="419.9" r="3.0" fill="rgb(0,8,246)" opacity="0.8"/>
  <circle cx="396.0" cy="284.5" r="3.0" fill="rgb(5,249,0)" opacity="0.8"/>
  <circle cx="289.8" cy="109.7" r="3.0" fill="rgb(0,163,91)" opacity="0.8"/>
  <circle cx="471.0" cy="180.5" r="3.0" fill="rgb(18,236,0)" opacity="0.8"/>
  <circle cx="398.8" cy="475.6" r="3.0" fill="rgb(239,15,0)" opacity="0.8"/>
  <circle cx="560.9" cy="552.7" r="3.0" fill="rgb(24,230,0)" opacity="0.8"/>
  <circle cx="298.6" cy="108.1" r="3.0" fill="rgb(0,218,36)" opacity="0.8"/>
  <circle cx="492.6" cy="119.4" r="3.0" fill="rgb(0,61,193)" opacity="0.8"/>
  <circle cx="415.2" cy="132.2" r="3.0" fill="rgb(26,228,0)" opacity="0.8"/>
  <circle cx="387.3" cy="205.7" r="3.0" fill="rgb(253,1,0)" opacity="0.8"/>
  <circle cx="368.2" cy="443.8" r="3.0" fill="rgb(0,48,206)" opacity="0.8"/>
  <circle cx="602.1" cy="447.4" r="3.0" fill="rgb(0,17,237)" opacity="0.8"/>
  <circle cx="339.9" cy="360.5" r="3.0" fill="rgb(142,112,0)" opacity="0.8"/>
  <circle cx="394.3" cy="446.6" r="3.0" fill="rgb(243,11,0)" opacity="0.8"/>
  <circle cx="358.6" cy="467.1" r="3.0" fill="rgb(127,127,0)" opacity="0.8"/>
  <circle cx="399.6" cy="265.4" r="3.0" fill="rgb(41,213,0)" opacity="0.8"/>
  <circle cx="266.4" cy="149.8" r="3.0" fill="rgb(44,210,0)" opacity="0.8"/>
  <circle cx="327.1" cy="387.7" r="3.0" fill="rgb(207,47,0)" opacity="0.8"/>
  <circle cx="552.0" cy="234.5" r="3.0" fill="rgb(0,124,130)" opacity="0.8"/>
  <circle cx="508.8" cy="160.0" r="3.0" fill="rgb(0,115,139)" opacity="0.8"/>
  <circle cx="438.9" cy="345.6" r="3.0" fill="rgb(116,138,0)" opacity="0.8"/>
  <circle cx="493.1" cy="377.1" r="3.0" fill="rgb(202,52,0)" opacity="0.8"/>
  <circle cx="282.4" cy="110.0" r="3.0" fill="rgb(0,57,197)" opacity="0.8"/>
  <circle cx="311.7" cy="389.6" r="3.0" fill="rgb(234,20,0)" opacity="0.8"/>
  <circle cx="272.8" cy="286.2" r="3.0" fill="rgb(0,94,160)" opacity="0.8"/>
  <circle cx="605.0" cy="431.1" r="3.0" fill="rgb(0,25,229)" opacity="0.8"/>
  <circle cx="409.5" cy="272.5" r="3.0" fill="rgb(49,205,0)" opacity="0.8"/>
  <circle cx="352.2" cy="254.5" r="3.0" fill="rgb(71,183,0)" opacity="0.8"/>
  <circle cx="274.1" cy="277.1" r="3.0" fill="rgb(0,6,248)" opacity="0.8"/>
  <circle cx="540.9" cy="521.4" r="3.0" fill="rgb(0,0,254)" opacity="0.8"/>
  <circle cx="387.1" cy="149.4" r="3.0" fill="rgb(135,119,0)" opacity="0.8"/>
  <circle cx="343.8" cy="62.1" r="3.0" fill="rgb(0,63,191)" opacity="0.8"/>
  <circle cx="402.9" cy="264.1" r="3.0" fill="rgb(56,198,0)" opacity="0.8"/>
  <circle cx="336.8" cy="415.5" r="3.0" fill="rgb(0,113,141)" opacity="0.8"/>
  <circle cx="463.4" cy="104.1" r="3.0" fill="rgb(0,87,167)" opacity="0.8"/>
  <circle cx="425.6" cy="284.5" r="3.0" fill="rgb(135,119,0)" opacity="0.8"/>
  <circle cx="341.2" cy="104.7" r="3.0" fill="rgb(18,236,0)" opacity="0.8"/>
  <circle cx="445.7" cy="490.1" r="3.0" fill="rgb(136,118,0)" opacity="0.8"/>
  <circle cx="461.1" cy="425.5" r="3.0" fill="rgb(251,3,0)" opacity="0.8"/>
  <circle cx="374.3" cy="204.1" r="3.0" fill="rgb(254,0,0)" opacity="0.8"/>
  <circle cx="344.2" cy="458.8" r="3.0" fill="rgb(186,68,0)" opacity="0.8"/>
  <circle cx="296.6" cy="234.8" r="3.0" fill="rgb(197,57,0)" opacity="0.8"/>
  <circle cx="262.0" cy="351.1" r="3.0" fill="rgb(182,72,0)" opacity="0.8"/>
  <circle cx="339.0" cy="182.2" r="3.0" fill="rgb(254,0,0)" opacity="0.8"/>
  <circle cx="343.7" cy="415.9" r="3.0" fill="rgb(0,5,249)" opacity="0.8"/>
  <circle cx="288.0" cy="326.1" r="3.0" fill="rgb(214,40,0)" opacity="0.8"/>
  <circle cx="242.3" cy="219.7" r="3.0" fill="rgb(189,65,0)" opacity="0.8"/>
  <circle cx="444.5" cy="498.4" r="3.0" fill="rgb(5,249,0)" opacity="0.8"/>
  <circle cx="247.8" cy="237.5" r="3.0" fill="rgb(24,230,0)" opacity="0.8"/>
  <circle cx="321.6" cy="107.5" r="3.0" fill="rgb(23,231,0)" opacity="0.8"/>
  <circle cx="567.2" cy="532.3" r="3.0" fill="rgb(0,87,167)" opacity="0.8"/>
  <circle cx="302.5" cy="97.3" r="3.0" fill="rgb(0,154,100)" opacity="0.8"/>
  <circle cx="606.7" cy="275.5" r="3.0" fill="rgb(0,6,248)" opacity="0.8"/>
  <circle cx="454.7" cy="472.5" r="3.0" fill="rgb(201,53,0)" opacity="0.8"/>
  <circle cx="241.9" cy="254.8" r="3.0" fill="rgb(123,131,0)" opacity="0.8"/>
  <circle cx="267.2" cy="172.1" r="3.0" fill="rgb(208,46,0)" opacity="0.8"/>
  <circle cx="375.7" cy="204.6" r="3.0" fill="rgb(254,0,0)" opacity="0.8"/>
  <circle cx="375.5" cy="115.5" r="3.0" fill="rgb(38,216,0)" opacity="0.8"/>
  <circle cx="299.3" cy="430.3" r="3.0" fill="rgb(0,131,123)" opacity="0.8"/>
  <circle cx="237.2" cy="31.6" r="3.0" fill="rgb(121,133,0)" opacity="0.8"/>
  <circle cx="583.2" cy="245.0" r="3.0" fill="rgb(0,40,214)" opacity="0.8"/>
  <circle cx="389.6" cy="406.6" r="3.0" fill="rgb(163,91,0)" opacity="0.8"/>
  <circle cx="248.1" cy="286.4" r="3.0" fill="rgb(95,159,0)" opacity="0.8"/>
  <circle cx="248.7" cy="209.8" r="3.0" fill="rgb(228,26,0)" opacity="0.8"/>
  <circle cx="417.8" cy="288.1" r="3.0" fill="rgb(37,217,0)" opacity="0.8"/>
  <circle cx="365.5" cy="316.5" r="3.0" fill="rgb(42,212,0)" opacity="0.8"/>
  <circle cx="361.3" cy="270.9" r="3.0" fill="rgb(41,213,0)" opacity="0.8"/>
  <circle cx="587.2" cy="480.1" r="3.0" fill="rgb(0,8,246)" opacity="0.8"/>
  <circle cx="242.5" cy="283.7" r="3.0" fill="rgb(174,80,0)" opacity="0.8"/>
  <circle cx="309.9" cy="139.1" r="3.0" fill="rgb(164,90,0)" opacity="0.8"/>
  <circle cx="349.2" cy="235.5" r="3.0" fill="rgb(111,143,0)" opacity="0.8"/>
  <circle cx="583.9" cy="276.7" r="3.0" fill="rgb(0,73,181)" opacity="0.8"/>
  <circle cx="511.0" cy="134.1" r="3.0" fill="rgb(0,51,203)" opacity="0.8"/>
  <circle cx="296.2" cy="337.3" r="3.0" fill="rgb(0,38,216)" opacity="0.8"/>
  <circle cx="296.3" cy="340.8" r="3.0" fill="rgb(0,60,194)" opacity="0.8"/>
  <circle cx="488.4" cy="135.6" r="3.0" fill="rgb(0,112,142)" opacity="0.8"/>
  <circle cx="261.7" cy="202.9" r="3.0" fill="rgb(251,3,0)" opacity="0.8"/>
  <circle cx="557.4" cy="532.2" r="3.0" fill="rgb(0,50,204)" opacity="0.8"/>
  <circle cx="341.3" cy="225.9" r="3.0" fill="rgb(144,110,0)" opacity="0.8"/>
  <circle cx="523.6" cy="360.2" r="3.0" fill="rgb(98,156,0)" opacity="0.8"/>
  <circle cx="602.4" cy="434.2" r="3.0" fill="rgb(0,29,225)" opacity="0.8"/>
  <circle cx="459.2" cy="376.6" r="3.0" fill="rgb(252,2,0)" opacity="0.8"/>
  <circle cx="262.5" cy="160.6" r="3.0" fill="rgb(0,168,86)" opacity="0.8"/>
  <circle cx="304.8" cy="290.2" r="3.0" fill="rgb(157,97,0)" opacity="0.8"/>
  <circle cx="459.1" cy="453.4" r="3.0" fill="rgb(232,22,0)" opacity="0.8"/>
  <circle cx="319.8" cy="323.5" r="3.0" fill="rgb(141,113,0)" opacity="0.8"/>
  <circle cx="397.7" cy="358.1" r="3.0" fill="rgb(59,195,0)" opacity="0.8"/>
  <circle cx="422.3" cy="290.3" r="3.0" fill="rgb(56,198,0)" opacity="0.8"/>
  <circle cx="523.9" cy="184.7" r="3.0" fill="rgb(0,124,130)" opacity="0.8"/>
  <circle cx="542.7" cy="507.4" r="3.0" fill="rgb(0,19,235)" opacity="0.8"/>
  <circle cx="398.5" cy="109.8" r="3.0" fill="rgb(0,237,17)" opacity="0.8"/>
  <circle cx="372.0" cy="227.8" r="3.0" fill="rgb(154,100,0)" opacity="0.8"/>
  <circle cx="394.3" cy="467.9" r="3.0" fill="rgb(0,61,193)" opacity="0.8"/>
  <circle cx="373.2" cy="246.9" r="3.0" fill="rgb(69,185,0)" opacity="0.8"/>
  <circle cx="292.1" cy="117.8" r="3.0" fill="rgb(3,251,0)" opacity="0.8"/>
  <circle cx="340.6" cy="445.2" r="3.0" fill="rgb(253,1,0)" opacity="0.8"/>
</svg>