<svg xmlns="http://www.w3.org/2000/svg" width="800" height="600">
  <style>
    .axis { font-family: Arial, sans-serif; font-size: 12px; fill: #333; }
    .title { font-family: Arial, sans-serif; font-size: 16px; font-weight: bold; fill: #333; }
    .label { font-family: Arial, sans-serif; font-size: 12px; fill: #666; }
    .legend { font-family: Arial, sans-serif; font-size: 11px; fill: #333; }
    .grid { stroke: #e0e0e0; stroke-width: 0.5; }
  </style>
  <text x="400" y="33" class="title" text-anchor="middle">Trigonometric Functions</text>
  <line x1="60" y1="50" x2="60" y2="550" class="grid"/>
  <line x1="202" y1="50" x2="202" y2="550" class="grid"/>
  <line x1="344" y1="50" x2="344" y2="550" class="grid"/>
  <line x1="486" y1="50" x2="486" y2="550" class="grid"/>
  <line x1="628" y1="50" x2="628" y2="550" class="grid"/>
  <line x1="770" y1="50" x2="770" y2="550" class="grid"/>
  <line x1="60" y1="50" x2="770" y2="50" class="grid"/>
  <line x1="60" y1="150" x2="770" y2="150" class="grid"/>
  <line x1="60" y1="250" x2="770" y2="250" class="grid"/>
  <line x1="60" y1="350" x2="770" y2="350" class="grid"/>
  <line x1="60" y1="450" x2="770" y2="450" class="grid"/>
  <line x1="60" y1="550" x2="770" y2="550" class="grid"/>
  <line x1="60" y1="50" x2="60" y2="550" stroke="black" stroke-width="1"/>
  <line x1="60" y1="550" x2="770" y2="550" stroke="black" stroke-width="1"/>
  <polyline points="119.2,300.0 125.1,279.2 131.1,258.6 137.1,238.4 143.1,218.9 149.0,200.1 155.0,182.4 161.0,165.8 167.0,150.6 173.0,136.8 178.9,124.7 184.9,114.3 190.9,105.8 196.9,99.3 202.8,94.7 208.8,92.2 214.8,91.8 220.8,93.4 226.7,97.1 232.7,102.9 238.7,110.6 244.7,120.2 250.6,131.6 256.6,144.6 262.6,159.3 268.6,175.3 274.6,192.6 280.5,211.0 286.5,230.2 292.5,250.2 298.5,270.6 304.4,291.3 310.4,312.2 316.4,332.9 322.4,353.2 328.3,373.1 334.3,392.2 340.3,410.4 346.3,427.5 352.2,443.3 358.2,457.7 364.2,470.5 370.2,481.6 376.2,490.9 382.1,498.3 388.1,503.7 394.1,507.0 400.1,508.3 406.0,507.6 412.0,504.7 418.0,499.8 424.0,492.9 429.9,484.1 435.9,473.4 441.9,461.0 447.9,447.0 453.8,431.5 459.8,414.7 465.8,396.8 471.8,377.9 477.8,358.2 483.7,338.0 489.7,317.3 495.7,296.5 501.7,275.7 507.6,255.2 513.6,235.1 519.6,215.7 525.6,197.1 531.5,179.5 537.5,163.1 543.5,148.1 549.5,134.7 555.4,122.8 561.4,112.8 567.4,104.6 573.4,98.4 579.4,94.1 585.3,92.0 591.3,91.9 597.3,93.9 603.3,97.9 609.2,104.0 615.2,112.0 621.2,122.0 627.2,133.7 633.1,147.0 639.1,161.9 645.1,178.1 651.1,195.6 657.0,214.1 663.0,233.5 669.0,253.6 675.0,274.1 681.0,294.8 686.9,315.7 692.9,336.3 698.9,356.6 704.9,376.4 710.8,395.3" fill="none" stroke="#1f77b4" stroke-width="2"/>
  <polyline points="119.2,91.7 125.1,92.7 131.1,95.8 137.1,101.0 143.1,108.1 149.0,117.2 155.0,128.1 161.0,140.7 167.0,154.9 173.0,170.5 178.9,187.4 184.9,205.5 190.9,224.5 196.9,244.3 202.8,264.6 208.8,285.3 214.8,306.1 220.8,326.9 226.7,347.3 232.7,367.4 238.7,386.7 244.7,405.2 250.6,422.6 256.6,438.8 262.6,453.6 268.6,466.9 274.6,478.5 280.5,488.4 286.5,496.3 292.5,502.3 298.5,506.3 304.4,508.2 310.4,508.0 316.4,505.7 322.4,501.4 328.3,495.1 334.3,486.8 340.3,476.7 346.3,464.8 352.2,451.2 358.2,436.2 364.2,419.8 370.2,402.1 376.2,383.5 382.1,364.0 388.1,343.9 394.1,323.4 400.1,302.6 406.0,281.8 412.0,261.1 418.0,240.9 424.0,221.3 429.9,202.4 435.9,184.5 441.9,167.8 447.9,152.4 453.8,138.4 459.8,126.1 465.8,115.5 471.8,106.8 477.8,100.0 483.7,95.2 489.7,92.4 495.7,91.7 501.7,93.1 507.6,96.5 513.6,102.0 519.6,109.5 525.6,118.9 531.5,130.1 537.5,142.9 543.5,157.4 549.5,173.3 555.4,190.4 561.4,208.6 567.4,227.8 573.4,247.7 579.4,268.1 585.3,288.8 591.3,309.6 597.3,330.3 603.3,350.7 609.2,370.7 615.2,389.9 621.2,408.2 627.2,425.4 633.1,441.4 639.1,456.0 645.1,469.0 651.1,480.3 657.0,489.8 663.0,497.5 669.0,503.1 675.0,506.7 681.0,508.3 686.9,507.8 692.9,505.2 698.9,500.5 704.9,493.9 710.8,485.3" fill="none" stroke="#1f77b4" stroke-width="2"/>
  <text x="400" y="590" class="label" text-anchor="middle">x</text>
  <text x="15" y="300" class="label" text-anchor="middle" transform="rotate(-90, 15, 300)">y</text>
  <rect x="670" y="60" width="12" height="12" fill="#1f77b4"/>
  <text x="688" y="70" class="legend">sin(x)</text>
  <rect x="670" y="75" width="12" height="12" fill="#1f77b4"/>
  <text x="688" y="85" class="legend">cos(x)</text>
</svg>